<svg viewBox="0 0 24 24" role="presentation" class="app-svg icons-onedrive" xmlns="http://www.w3.org/2000/svg">
    <path fill="none" d="M0 0h24v24H0z"></path>
    <path d="M14.5 15l4.954-4.738a7.5 7.5 0 0 0-13.53-2.26C6 8 14.5 15 14.5 15z" fill="#0364b8"></path>
    <path d="M9.152 8.894A5.97 5.97 0 0 0 6 8l-.077.002a5.998 5.998 0 0 0-4.845 9.428L8.5 16.5l5.69-4.588z" fill="#0078d4"></path>
    <path d="M19.454 10.262a4.931 4.931 0 0 0-.329-.012 4.858 4.858 0 0 0-1.932.399l-3.003 1.263L17.5 16l5.917 1.438a4.875 4.875 0 0 0-3.963-7.176z" fill="#1490df"></path>
    <path d="M1.078 17.43A5.992 5.992 0 0 0 6 20h13.125a4.874 4.874 0 0 0 4.292-2.562l-9.227-5.526z" fill="#28a8ea"></path>
</svg>