<svg viewBox="0 0 24 24" role="presentation" class="app-svg icons-outlook" xmlns="http://www.w3.org/2000/svg">
    <path fill="none" d="M0 0h24v24H0z"></path>
    <path d="M21.032 1H7.968A.968.968 0 0 0 7 1.968V3l8 2.453L22 3V1.968A.968.968 0 0 0 21.032 1z" fill="#0364b8"></path>
    <path d="M24 11.917a.528.528 0 0 0-.264-.457l-.012-.007-8.591-4.894a1.188 1.188 0 0 0-1.172-.066 1.182 1.182 0 0 0-.115.066L5.277 11.43h-.001l-.012.007a.528.528 0 0 0 0 .915l8.582 4.923a1.18 1.18 0 0 0 .115.065 1.185 1.185 0 0 0 1.172-.065l8.59-4.894.003-.002.01-.005a.528.528 0 0 0 .264-.458z" fill="#0a2767"></path>
    <path fill="#28a8ea" d="M15 3H7v7l8 8h7v-8l-7-7z"></path>
    <path fill="#35b8f1" d="M23.556 22.815L5.285 12.37l-.002-.001"></path>
    <path fill="#50d9ff" d="M15 3h7v7h-7z"></path>
    <path fill="#0078d4" d="M7 10h8v10H7z"></path>
    <path d="M14.5 19.5l-9.212-7.147.49-.863s8.462 4.854 8.614 4.938a.33.33 0 0 0 .238-.012c.126-.07 8.497-4.842 8.497-4.842l.499.863z" fill="#0a2767" opacity=".5"></path>
    <path fill="#1490df" d="M13.851 17.267l.029.017-.029-.017zM23.736 12.356l-.01.006-.003.002-8.525 4.883c-.037.024-.172.088-.172.088a1.2 1.2 0 0 1-.532.124 1.24 1.24 0 0 1-.538-.132l2.778 3.852 6.822 1.636a.998.998 0 0 0 .444-.822V11.9a.528.528 0 0 1-.264.457z"></path>
    <path d="M24 21.993v-.076l-8.498-4.843-.302.173c-.037.024-.172.088-.172.088a1.198 1.198 0 0 1-.531.124h-.003l-.036-.001-.027-.001a1.25 1.25 0 0 1-.431-.11v.022l4 3.63 5.556 1.816a.998.998 0 0 0 .444-.822z" opacity=".1"></path>
    <path d="M13.85 17.267L7 13.187v-.003l-1.736-.831A.528.528 0 0 1 5 11.896V22a1.003 1.003 0 0 0 1.004 1h16.794a1.137 1.137 0 0 0 .758-.185z" fill="#28a8ea"></path>
    <path d="M13.604 20A1.5 1.5 0 0 0 15 18.646V7.166A1.17 1.17 0 0 0 13.833 6H7v4.471l-1.736.99-.009.007a.479.479 0 0 0-.259.424c0 .024-.004.043-.004.013h.02V20z" opacity=".5"></path>
    <rect y="5" width="14" height="14" rx="1.167" ry="1.167" fill="#0078d4"></rect>
    <path d="M3.693 9.974a3.346 3.346 0 0 1 1.314-1.45A3.973 3.973 0 0 1 7.094 8a3.694 3.694 0 0 1 1.932.496 3.311 3.311 0 0 1 1.278 1.387 4.478 4.478 0 0 1 .448 2.039 4.722 4.722 0 0 1-.461 2.133 3.393 3.393 0 0 1-1.317 1.435A3.841 3.841 0 0 1 6.97 16a3.783 3.783 0 0 1-1.974-.502A3.364 3.364 0 0 1 3.7 14.11a4.368 4.368 0 0 1-.453-2.015 4.844 4.844 0 0 1 .445-2.12zm1.4 3.407a2.173 2.173 0 0 0 .739.955 1.93 1.93 0 0 0 1.154.348 2.027 2.027 0 0 0 1.233-.359 2.083 2.083 0 0 0 .718-.958 3.701 3.701 0 0 0 .229-1.332 4.05 4.05 0 0 0-.216-1.349 2.135 2.135 0 0 0-.693-.992 1.91 1.91 0 0 0-1.222-.378 1.995 1.995 0 0 0-1.181.35 2.193 2.193 0 0 0-.756.964 3.82 3.82 0 0 0-.005 2.75z" fill="#fff"></path>
</svg>