<svg viewBox="0 0 24 24" role="presentation" xmlns="http://www.w3.org/2000/svg" class="app-svg icons-powerpoint">
    <path fill="none" d="M0 0h24v24H0z"></path>
    <path d="M13 1A11.032 11.032 0 0 0 2 12l14.837 3.837z" fill="#ed6c47"></path>
    <path d="M13 1a11.032 11.032 0 0 1 11 11l-5.5 2.95L13 12z" fill="#ff8f6b"></path>
    <path d="M2 12a11 11 0 0 0 22 0z" fill="#d35230"></path>
    <path d="M15 18.646V7.166A1.17 1.17 0 0 0 13.833 6H3.8a10.913 10.913 0 0 0 1.685 14h8.12A1.5 1.5 0 0 0 15 18.646z" opacity=".5"></path>
    <path d="M15 18.646V7.166A1.17 1.17 0 0 0 13.833 6H3.8a10.913 10.913 0 0 0 1.685 14h8.12A1.5 1.5 0 0 0 15 18.646z" opacity=".1"></path>
    <rect y="5" width="14" height="14" rx="1.167" ry="1.167" fill="#c43e1c"></rect>
    <path d="M7.4 8a3.321 3.321 0 0 1 2.196.642 2.293 2.293 0 0 1 .761 1.857 3.43 3.43 0 0 1-.376 1.614 2.521 2.521 0 0 1-1.071.946 3.642 3.642 0 0 1-1.61.337H5.777V16H4.215V8zm-1.623 4.01h1.345a1.748 1.748 0 0 0 1.188-.355 1.443 1.443 0 0 0 .402-1.094q0-1.323-1.54-1.323H5.777z" fill="#fff"></path>
</svg>