<svg xmlns="http://www.w3.org/2000/svg" viewBox="0 0 24 24" role="presentation" class="app-svg icons-sharepoint">
    <path fill="none" d="M0 0h24v24H0z"></path>
    <circle cx="11" cy="7" r="7" fill="#036c70"></circle>
    <circle cx="18" cy="13" r="6" fill="#1a9ba1"></circle>
    <circle cx="12" cy="19" r="5" fill="#37c6d0"></circle>
    <path d="M13.833 6H4.071a7.005 7.005 0 0 0 7.999 7.919l.014.082L12 14a4.995 4.995 0 0 0-1.551.246c.141-.006.282-.015.422-.027l.006.043a5.22 5.22 0 0 0-.632.055A5.007 5.007 0 0 0 7.1 20h6.504A1.5 1.5 0 0 0 15 18.646V7.166A1.17 1.17 0 0 0 13.833 6z" opacity=".5"></path>
    <rect y="5" width="14" height="14" rx="1.167" ry="1.167" fill="#038387"></rect>
    <path d="M5.136 11.86a2.116 2.116 0 0 1-.658-.696 1.89 1.89 0 0 1-.23-.952 1.832 1.832 0 0 1 .427-1.233 2.513 2.513 0 0 1 1.133-.739A4.785 4.785 0 0 1 7.356 8a5.883 5.883 0 0 1 2.04.286v1.44a3.19 3.19 0 0 0-.923-.377 4.476 4.476 0 0 0-1.08-.13 2.34 2.34 0 0 0-1.108.235.729.729 0 0 0-.44.666.675.675 0 0 0 .187.472 1.697 1.697 0 0 0 .501.359q.316.156.942.415a.986.986 0 0 1 .135.054 7.759 7.759 0 0 1 1.186.585 2.123 2.123 0 0 1 .702.707 2.046 2.046 0 0 1 .253 1.065 1.985 1.985 0 0 1-.399 1.284 2.231 2.231 0 0 1-1.068.718A4.84 4.84 0 0 1 6.763 16a8.023 8.023 0 0 1-1.379-.113 4.73 4.73 0 0 1-1.119-.324v-1.521a3.6 3.6 0 0 0 1.133.54 4.41 4.41 0 0 0 1.246.199 2.144 2.144 0 0 0 1.13-.24.758.758 0 0 0 .38-.677.723.723 0 0 0-.213-.518 2.163 2.163 0 0 0-.588-.41q-.375-.189-1.108-.496a6.288 6.288 0 0 1-1.109-.58z" fill="#fff"></path>
</svg>