<svg viewBox="0 0 24 24" role="presentation" xmlns="http://www.w3.org/2000/svg" class="app-svg icons-word">
    <path fill="none" d="M0 0h24v24H0z"></path>
    <path d="M24 7V2a1 1 0 0 0-1-1H7a1 1 0 0 0-1 1v5l9 2z" fill="#41a5ee"></path>
    <path fill="#2b7cd3" d="M24 7H6v5l9.5 2 8.5-2V7z"></path>
    <path fill="#185abd" d="M24 12H6v5l9 1.5 9-1.5v-5z"></path>
    <path d="M6 17h18v4.958a1 1 0 0 1-1 1H7a1 1 0 0 1-1-1V17z" fill="#103f91"></path>
    <path d="M13.833 6H6v14h7.604A1.5 1.5 0 0 0 15 18.646V7.166A1.17 1.17 0 0 0 13.833 6z" opacity=".5"></path>
    <rect y="5" width="14" height="14" rx="1.167" ry="1.167" fill="#185abd"></rect>
    <path d="M10.16 16H8.72l-1.68-5.52L5.28 16H3.84l-1.6-8h1.44l1.12 5.6 1.68-5.44h1.2l1.6 5.44L10.4 8h1.36z" fill="#fff"></path>
</svg>