<svg viewBox="-6 -6 32 32" role="presentation" fill='none' class="app-svg icons-assignments" xmlns="http://www.w3.org/2000/svg">
    <g class="icons-default-fill">
        <g class="icons-unfilled">
            <path d="M8.7 7C7.76112 7 7 7.76112 7 8.7C7 9.41797 7.58203 10 8.3 10H11.7C12.418 10 13 9.41797 13 8.7C13 7.76112 12.2389 7 11.3 7H8.7ZM8 8.7C8 8.3134 8.3134 8 8.7 8H11.3C11.6866 8 12 8.3134 12 8.7C12 8.86569 11.8657 9 11.7 9H8.3C8.13431 9 8 8.86569 8 8.7Z"></path>
            <path d="M10 2C8.61929 2 7.5 3.11929 7.5 4.5V4.54404C5.43447 5.49205 4 7.57851 4 10V15C4 16.6569 5.34315 18 7 18H13C14.6569 18 16 16.6569 16 15V10C16 7.57851 14.5655 5.49205 12.5 4.54404V4.5C12.5 3.11929 11.3807 2 10 2ZM15 12H5V10C5 7.23858 7.23858 5 10 5C12.7614 5 15 7.23858 15 10V12ZM7 14.5C7 14.7761 7.22386 15 7.5 15C7.77614 15 8 14.7761 8 14.5V13H15V15C15 16.1046 14.1046 17 13 17H7C5.89543 17 5 16.1046 5 15V13H7V14.5ZM10 4C9.49433 4 9.00327 4.06255 8.53413 4.18035C8.68061 3.50549 9.28127 3 10 3C10.7187 3 11.3194 3.50549 11.4659 4.18035C10.9967 4.06255 10.5057 4 10 4Z"></path>
        </g>
        <g class="icons-filled" fill="#6164a6">
            <path d="M8 8.7C8 8.3134 8.3134 8 8.7 8H11.3C11.6866 8 12 8.3134 12 8.7C12 8.86569 11.8657 9 11.7 9H8.3C8.13431 9 8 8.86569 8 8.7Z"></path>
            <path d="M10 2C8.61929 2 7.5 3.11929 7.5 4.5V4.54404C5.43447 5.49205 4 7.57851 4 10V12H16V10C16 7.57851 14.5655 5.49205 12.5 4.54404V4.5C12.5 3.11929 11.3807 2 10 2ZM10 4C10.5057 4 10.9967 4.06255 11.4659 4.18035C11.3194 3.50549 10.7187 3 10 3C9.28127 3 8.68061 3.50549 8.53413 4.18035C9.00327 4.06255 9.49433 4 10 4ZM8.7 7H11.3C12.2389 7 13 7.76112 13 8.7C13 9.41797 12.418 10 11.7 10H8.3C7.58203 10 7 9.41797 7 8.7C7 7.76112 7.76112 7 8.7 7Z"></path>
            <path d="M7 14.5V13H4V15C4 16.6569 5.34315 18 7 18H13C14.6569 18 16 16.6569 16 15V13H8V14.5C8 14.7761 7.77614 15 7.5 15C7.22386 15 7 14.7761 7 14.5Z"></path>
        </g>
    </g>
</svg>