<svg class="gsvg" viewBox="0 0 280 154" xmlns="http://www.w3.org/2000/svg">
    <g fill="none" fill-rule="evenodd" class="preview-default-dark">
        <path d="M278 154H21V11h259v140.999c0 1.1-1 2.001-2 2.001z" class="gsvgbg" fill-rule="nonzero"></path>
        <rect class="gsvgtc" fill-rule="nonzero" x="39" y="25" width="48" height="52" rx="1"></rect>
        <rect fill="#C3F2F4" fill-rule="nonzero" x="55" y="38" width="16" height="16" rx="1"></rect>
        <path fill="#D9DADD" fill-rule="nonzero" d="M51 60h24v3H51z"></path>
        <rect class="gsvgtc" fill-rule="nonzero" x="39" y="87" width="48" height="52" rx="1"></rect>
        <rect fill="#C3F2F4" fill-rule="nonzero" x="55" y="100" width="16" height="16" rx="1"></rect>
        <path fill="#D9DADD" fill-rule="nonzero" d="M51 122h24v3H51z"></path>
        <rect class="gsvgtc" fill-rule="nonzero" x="97" y="25" width="48" height="52" rx="1"></rect>
        <rect fill="#C3F2F4" fill-rule="nonzero" x="113" y="38" width="16" height="16" rx="1"></rect>
        <path fill="#D9DADD" fill-rule="nonzero" d="M109 60h24v3h-24z"></path>
        <rect class="gsvgtc" fill-rule="nonzero" x="97" y="87" width="48" height="52" rx="1"></rect>
        <rect fill="#C3F2F4" fill-rule="nonzero" x="113" y="100" width="16" height="16" rx="1"></rect>
        <path fill="#D9DADD" fill-rule="nonzero" d="M109 122h24v3h-24z"></path>
        <rect class="gsvgtc" fill-rule="nonzero" x="155" y="25" width="48" height="52" rx="1"></rect>
        <rect fill="#C3F2F4" fill-rule="nonzero" x="171" y="38" width="16" height="16" rx="1"></rect>
        <path fill="#D9DADD" fill-rule="nonzero" d="M167 60h24v3h-24z"></path>
        <rect class="gsvgtc" fill-rule="nonzero" x="155" y="87" width="48" height="52" rx="1"></rect>
        <rect fill="#C3F2F4" fill-rule="nonzero" x="171" y="100" width="16" height="16" rx="1"></rect>
        <path fill="#D9DADD" fill-rule="nonzero" d="M167 122h24v3h-24z"></path>
        <rect class="gsvgtc" fill-rule="nonzero" x="213" y="25" width="48" height="52" rx="1"></rect>
        <rect fill="#C3F2F4" fill-rule="nonzero" x="229" y="38" width="16" height="16" rx="1"></rect>
        <path fill="#D9DADD" fill-rule="nonzero" d="M225 60h24v3h-24z"></path>
        <rect class="gsvgtc" fill-rule="nonzero" x="213" y="87" width="48" height="52" rx="1"></rect>
        <rect fill="#C3F2F4" fill-rule="nonzero" x="229" y="100" width="16" height="16" rx="1"></rect>
        <path fill="#D9DADD" fill-rule="nonzero" d="M225 122h24v3h-24z"></path>
        <path d="M280 11V1.982C280 .892 279 0 277.698 0H2.202C.9 0 0 .793 0 1.982V11h280z" fill="#8B8CC7" fill-rule="nonzero"></path>
        <rect fill="#E2E2F6" x="92" y="3" width="117" height="5" rx="1"></rect>
        <path class="gsvgab" d="M22 154H2c-1 0-2-.8-2-2.001V11h22v143z" fill-rule="nonzero"></path>
        <circle fill="#FFF" fill-rule="nonzero" cx="271.5" cy="5.5" r="3.5"></circle>
    </g>
    <g fill="none" fill-rule="evenodd" class="preview-contrast">
        <path d="M278 154H21V11h259v140.999c0 1.1-1 2.001-2 2.001z" fill="#000" fill-rule="nonzero"></path>
        <rect stroke="#FFF" x="39" y="25" width="48" height="52" rx="1"></rect>
        <rect fill="#C3F2F4" fill-rule="nonzero" x="55" y="38" width="16" height="16" rx="1"></rect>
        <path fill="#E8D441" fill-rule="nonzero" d="M51 60h24v3H51z"></path>
        <rect stroke="#FFF" x="39" y="87" width="48" height="52" rx="1"></rect>
        <rect fill="#C3F2F4" fill-rule="nonzero" x="55" y="100" width="16" height="16" rx="1"></rect>
        <path fill="#E8D441" fill-rule="nonzero" d="M51 122h24v3H51z"></path>
        <rect stroke="#FFF" x="97" y="25" width="48" height="52" rx="1"></rect>
        <rect fill="#C3F2F4" fill-rule="nonzero" x="113" y="38" width="16" height="16" rx="1"></rect>
        <path fill="#E8D441" fill-rule="nonzero" d="M109 60h24v3h-24z"></path>
        <rect stroke="#FFF" x="97" y="87" width="48" height="52" rx="1"></rect>
        <rect fill="#C3F2F4" fill-rule="nonzero" x="113" y="100" width="16" height="16" rx="1"></rect>
        <path fill="#E8D441" fill-rule="nonzero" d="M109 122h24v3h-24z"></path>
        <rect stroke="#FFF" x="155" y="25" width="48" height="52" rx="1"></rect>
        <rect fill="#C3F2F4" fill-rule="nonzero" x="171" y="38" width="16" height="16" rx="1"></rect>
        <path fill="#E8D441" fill-rule="nonzero" d="M167 60h24v3h-24z"></path>
        <rect stroke="#FFF" x="155" y="87" width="48" height="52" rx="1"></rect>
        <rect fill="#C3F2F4" fill-rule="nonzero" x="171" y="100" width="16" height="16" rx="1"></rect>
        <path fill="#E8D441" fill-rule="nonzero" d="M167 122h24v3h-24z"></path>
        <rect stroke="#FFF" x="213" y="25" width="48" height="52" rx="1"></rect>
        <rect fill="#C3F2F4" fill-rule="nonzero" x="229" y="38" width="16" height="16" rx="1"></rect>
        <path fill="#E8D441" fill-rule="nonzero" d="M225 60h24v3h-24z"></path>
        <rect stroke="#FFF" x="213" y="87" width="48" height="52" rx="1"></rect>
        <rect fill="#C3F2F4" fill-rule="nonzero" x="229" y="100" width="16" height="16" rx="1"></rect>
        <path fill="#E8D441" fill-rule="nonzero" d="M225 122h24v3h-24z"></path>
        <path d="M280 11V1.982C280 .892 279 0 277.698 0H2.202C.9 0 0 .793 0 1.982V11h280z" fill="#000" fill-rule="nonzero"></path>
        <rect stroke="#FFF" x="92" y="3" width="117" height="5" rx="1"></rect>
        <path d="M22 154H2c-1 0-2-.8-2-2.001V11h22v143z" fill="#000" fill-rule="nonzero"></path>
        <circle fill="#FFF" fill-rule="nonzero" cx="271.5" cy="5.5" r="3.5"></circle>
        <path d="M0 11h280M22 11v143" stroke="#FFF"></path>
    </g>
</svg>