<svg viewBox="0 0 280 153.991" xmlns="http://www.w3.org/2000/svg">
    <path d="M0 11.12h280V1.97c0-1.125-.973-1.97-2.27-1.97H2.432C1.135 0 .162.845.162 1.97v9.15H0z"></path>
    <path d="M206.849 8.445H92.605c-.81 0-1.418-.422-1.418-.985V3.8c0-.562.607-.985 1.418-.985h114.244c.81 0 1.418.422 1.418.985v3.66c0 .563-.608.985-1.418.985z" fill="none" stroke="#fcfcfc" stroke-width="1.017" stroke-miterlimit="10"></path>
    <path d="M277.58 153.99H81.077V11.12H280v140.9c0 1.126-1.037 1.97-2.42 1.97z"></path>
    <path d="M16.469 11.12h74.5v142.871h-74.5z"></path>
    <path fill="#c3f2f4" d="M26.3 23.9h10.9v10.9H26.3z"></path>
    <path fill="#e8d441" d="M41.908 27.159H84.97v4.029H41.908zM41.908 42.541H84.97v4.029H41.908zM41.908 57.779H84.97v4.029H41.908zM41.908 73.016H84.97v4.029H41.908zM41.908 88.253H84.97v4.029H41.908zM41.908 103.491H84.97v4.029H41.908zM41.908 118.728H84.97v4.029H41.908z"></path>
    <path d="M21.628 153.99H2.734c-1.482 0-2.593-.844-2.593-1.97V11.12h21.487v142.87z"></path>
    <path fill="none" stroke="#fcfcfc" stroke-width="1.017" stroke-miterlimit="10" d="M138.562 26.558h102.865v28.726H138.562z"></path>
    <path fill="#fcfcfc" d="M142.59 31.241h95.007v4.618H142.59zM142.864 39.722h75.583v4.891h-75.583z"></path>
    <path fill="none" stroke="#fcfcfc" stroke-width="1.017" stroke-miterlimit="10" d="M138.562 71.898h102.865v28.726H138.562zM180.322 116.717h88.267v28.726h-88.267z"></path>
    <path fill="#fcfcfc" d="M142.59 85.336h95.007v4.618H142.59zM142.864 76.582h75.583v4.891h-75.583zM185.669 133.613h77.511v5.591h-77.511zM185.892 123.013h61.664v5.923h-61.664z"></path>
    <circle cx="271.793" cy="5.42" r="3.512" fill="#fff"></circle>
    <path fill="none" stroke="#fcfcfc" stroke-width="1.017" stroke-miterlimit="10" d="M0 12.114h280M21.628 12.355v141.636M90.969 12.355v141.636"></path>
    <circle cx="117.7" cy="38.6" r="11" fill="#fff"></circle>
    <path d="M117.7 49.6c1.3 0 2.5-.2 3.7-.6-.2-.2-.4-.6-.4-.9v-4.9l-5.8.2v4.8c0 .4-.3.8-.6 1 1 .2 2 .4 3.1.4z" fill="#fff" stroke="#000" stroke-miterlimit="10"></path>
    <circle cx="117.8" cy="27.1" r="4.5" stroke="#fff" stroke-miterlimit="10"></circle>
    <circle cx="117.8" cy="37.8" r="8.9"></circle>
    <path d="M124.899 42.4a1.538 1.538 0 1 1 0-3.076 1.538 1.538 0 1 1 0 3.076zM110.638 42.4a1.538 1.538 0 1 1 0-3.076 1.538 1.538 0 1 1 0 3.076z" fill="#fff" stroke="#000" stroke-miterlimit="10"></path>
    <ellipse cx="117.8" cy="39.5" rx="6.7" ry="7.8" fill="#fff" stroke="#000" stroke-miterlimit="10"></ellipse>
    <path d="M110.08 39.722c1-1.5 2.066-.956 3.52-1.022 2.22-.1 3.8-.4 5.2-1.8.607-.607 1.008-1.353 1.286-2.13.373 2.035 1.743 4.339 5.314 4.53 0 0 .627-4.897-2.678-7.318-1.796-1.315-6.511-1.995-9.422 0-3.8 2.604-3.22 7.74-3.22 7.74z"></path>
    <circle cx="120.8" cy="40.6" r="2.4" fill="#fff" stroke="#000" stroke-miterlimit="10"></circle>
    <circle cx="114.9" cy="40.7" r="2.4" fill="#fff" stroke="#000" stroke-miterlimit="10"></circle>
    <path fill="#fff" stroke="#000" stroke-miterlimit="10" d="M117.3 40.1h1.1"></path>
    <ellipse transform="rotate(-89.754 115.076 40.596)" cx="115.076" cy="40.597" rx=".9" ry=".5"></ellipse>
    <ellipse transform="rotate(-89.754 120.508 40.675)" cx="120.508" cy="40.675" rx=".9" ry=".5"></ellipse>
    <path d="M118.8 45c-.237.184-.8.476-1.5.3-.646-.162-1.053-.643-1.2-.9s.004-.523.3-.4.55.274 1 .4c.6.167 1.2.1 1.2.1.366-.042.448.307.2.5z"></path>
    <g>
        <circle cx="117.7" cy="83.6" r="11" fill="#fff"></circle>
        <path d="M117.7 94.6c1.3 0 2.5-.2 3.7-.6-.2-.2-.4-.6-.4-.9v-4.9l-5.8.2v4.8c0 .4-.3.8-.6 1 1 .2 2 .4 3.1.4z" fill="#fff" stroke="#000" stroke-miterlimit="10"></path>
        <circle cx="117.8" cy="72.1" r="4.5" stroke="#fff" stroke-miterlimit="10"></circle>
        <circle cx="117.8" cy="82.8" r="8.9"></circle>
        <path d="M124.899 87.4a1.538 1.538 0 1 1 0-3.076 1.538 1.538 0 1 1 0 3.076zM110.638 87.4a1.538 1.538 0 1 1 0-3.076 1.538 1.538 0 1 1 0 3.076z" fill="#fff" stroke="#000" stroke-miterlimit="10"></path>
        <ellipse cx="117.8" cy="84.5" rx="6.7" ry="7.8" fill="#fff" stroke="#000" stroke-miterlimit="10"></ellipse>
        <path d="M110.08 84.722c1-1.5 2.066-.956 3.52-1.022 2.22-.1 3.8-.4 5.2-1.8.607-.607 1.008-1.353 1.286-2.13.373 2.035 1.743 4.339 5.314 4.53 0 0 .627-4.897-2.678-7.318-1.796-1.315-6.511-1.995-9.422 0-3.8 2.604-3.22 7.74-3.22 7.74z"></path>
        <circle cx="120.8" cy="85.6" r="2.4" fill="#fff" stroke="#000" stroke-miterlimit="10"></circle>
        <circle cx="114.9" cy="85.7" r="2.4" fill="#fff" stroke="#000" stroke-miterlimit="10"></circle>
        <path fill="#fff" stroke="#000" stroke-miterlimit="10" d="M117.3 85.1h1.1"></path>
        <ellipse transform="rotate(-89.754 115.076 85.596)" cx="115.076" cy="85.597" rx=".9" ry=".5"></ellipse>
        <ellipse transform="rotate(-89.754 120.508 85.674)" cx="120.508" cy="85.675" rx=".9" ry=".5"></ellipse>
        <path d="M118.8 90c-.237.184-.8.476-1.5.3a2.015 2.015 0 0 1-1.2-.9c-.147-.257.004-.523.3-.4s.55.274 1 .4c.6.167 1.2.1 1.2.1.366-.042.448.307.2.5z"></path>
    </g>
</svg>